<svg xmlns="http://www.w3.org/2000/svg" viewBox="0 0 109.45 9.44"><path d="M5.05.24A4.68 4.68 0 017 .62a3 3 0 011.26 1.09 3 3 0 01.43 1.63A3 3 0 018.26 5 3 3 0 017 6.06a4.52 4.52 0 01-1.95.38h-3.9v-2h3.76a1.59 1.59 0 00.68-.13A1 1 0 006 3.94a1.16 1.16 0 00.15-.6A1.13 1.13 0 006 2.75a1 1 0 00-.44-.38 1.59 1.59 0 00-.68-.14H1.37l1.12-1.15v8.16H0v-9zM13.52 9.44a5.52 5.52 0 01-2.3-.44 3.62 3.62 0 01-1.54-1.29 3.31 3.31 0 01-.55-1.9 3.3 3.3 0 01.55-1.89 3.55 3.55 0 011.54-1.28 5.52 5.52 0 012.3-.46 5.47 5.47 0 012.29.46 3.58 3.58 0 011.55 1.28 3.3 3.3 0 01.55 1.89 3.31 3.31 0 01-.55 1.9A3.65 3.65 0 0115.81 9a5.47 5.47 0 01-2.29.44zm0-1.83a2.32 2.32 0 001-.21 1.53 1.53 0 00.66-.62 2 2 0 00.23-1 2 2 0 00-.23-1 1.47 1.47 0 00-.66-.62 2.5 2.5 0 00-2 0 1.47 1.47 0 00-.66.62 2 2 0 00-.23 1 2 2 0 00.23 1 1.53 1.53 0 00.66.62 2.31 2.31 0 001 .21zM18.94 0h2.46v9.24h-2.46zM25.2 7.28l-.67-.22 3.79-4.68h2.58l-6 6.86h-2.15V0h2.45zm1.16-1.39l1.85-1.29 2.87 4.64h-2.77zM38.06 5.81a5.16 5.16 0 01-.67 1.91A3.57 3.57 0 0136.13 9a3.61 3.61 0 01-3.49 0 3.09 3.09 0 01-1.2-1.28A4.12 4.12 0 0131 5.81a4.11 4.11 0 01.43-1.89 3 3 0 011.2-1.28 3.42 3.42 0 011.76-.46 3.38 3.38 0 011.73.45A3.59 3.59 0 0137.4 3.9a5.08 5.08 0 01.66 1.91zm-4.57 0a1.94 1.94 0 00.21.91 1.58 1.58 0 001.44.84 2 2 0 00.93-.22 2.61 2.61 0 00.79-.62 2.55 2.55 0 00.51-.91 2.69 2.69 0 00-.51-.9 2.61 2.61 0 00-.79-.62 2 2 0 00-.93-.23 1.61 1.61 0 00-1.44.85 1.93 1.93 0 00-.21.9zm4 3.43l-.32-2.47.34-1-.34-.94.32-2.49H40l-.4 3.47.4 3.43zM47.92 5.81a5.15 5.15 0 01-.66 1.91A3.67 3.67 0 0146 9a3.35 3.35 0 01-1.72.45A3.43 3.43 0 0142.5 9a3.22 3.22 0 01-1.2-1.28 4.12 4.12 0 01-.42-1.9 4.11 4.11 0 01.42-1.89 3.16 3.16 0 011.2-1.28 3.43 3.43 0 011.77-.46 3.35 3.35 0 011.73.44 3.51 3.51 0 011.26 1.27 4.76 4.76 0 01.66 1.91zm-4.56 0a1.94 1.94 0 00.21.91 1.57 1.57 0 00.58.62 1.64 1.64 0 00.86.22 2 2 0 00.93-.22 2.46 2.46 0 00.78-.62 2.55 2.55 0 00.51-.91 2.69 2.69 0 00-.51-.9 2.46 2.46 0 00-.78-.62 2.06 2.06 0 00-.94-.23 1.65 1.65 0 00-.86.23 1.57 1.57 0 00-.58.62 1.93 1.93 0 00-.2.9zm4 3.43l-.31-2.57.42-.84-.41-1 .6-4.83h2.55l-.71 5.63.43 3.61zM55.13 9.44a5.52 5.52 0 01-2.3-.44 3.65 3.65 0 01-1.55-1.28 3.38 3.38 0 01-.54-1.9 3.37 3.37 0 01.54-1.89 3.58 3.58 0 011.55-1.28 6 6 0 014.59 0A3.64 3.64 0 0159 3.92a3.3 3.3 0 01.55 1.89 3.31 3.31 0 01-.55 1.9A3.71 3.71 0 0157.42 9a5.47 5.47 0 01-2.29.44zm0-1.83a2.32 2.32 0 001-.21 1.53 1.53 0 00.66-.62 2 2 0 00.23-1 2 2 0 00-.23-1 1.47 1.47 0 00-.66-.62 2.5 2.5 0 00-2 0 1.47 1.47 0 00-.66.62 1.85 1.85 0 00-.23 1 1.86 1.86 0 00.23 1 1.53 1.53 0 00.66.62 2.31 2.31 0 001 .21zM59.81 4.19V3.13l1.4-.56 1-2h1.39v1.81h2.89v1.81h-2.84v2a2.06 2.06 0 00.13.79.8.8 0 00.43.42 2.34 2.34 0 00.84.12 3.9 3.9 0 00.87-.08 3.74 3.74 0 00.74-.23v1.87a5.92 5.92 0 01-1 .25 6.64 6.64 0 01-1.18.11A3.5 3.5 0 0162 8.68a2.76 2.76 0 01-.81-2.13V4.19zM75.69 8.12h-1.06L78.1.24h2.62l-4.18 9h-2.82l-4.19-9h2.67zM86.92 5.81a5.15 5.15 0 01-.66 1.91A3.67 3.67 0 0185 9a3.35 3.35 0 01-1.72.45A3.43 3.43 0 0181.5 9a3.22 3.22 0 01-1.2-1.28 4.12 4.12 0 01-.42-1.9 4.11 4.11 0 01.42-1.89 3.16 3.16 0 011.2-1.28 3.43 3.43 0 011.77-.46 3.35 3.35 0 011.73.44 3.51 3.51 0 011.26 1.27 4.76 4.76 0 01.66 1.91zm-4.56 0a1.94 1.94 0 00.21.91 1.57 1.57 0 00.58.62 1.64 1.64 0 00.86.22 2 2 0 00.93-.22 2.46 2.46 0 00.78-.62 2.55 2.55 0 00.51-.91 2.69 2.69 0 00-.51-.9 2.46 2.46 0 00-.78-.62 2.06 2.06 0 00-.94-.23 1.65 1.65 0 00-.86.23 1.57 1.57 0 00-.58.62 1.93 1.93 0 00-.2.9zm4 3.43L86 6.77l.34-1-.34-.9.32-2.49h2.58l-.44 3.43.44 3.43zM93 9.43A3.22 3.22 0 0191.39 9a2.51 2.51 0 01-1-1.12A3.77 3.77 0 0190 6.22V2.38h2.45v3.48A1.66 1.66 0 0092.81 7a1.37 1.37 0 001.06.4 1.7 1.7 0 00.87-.2 1.37 1.37 0 00.54-.6 2.26 2.26 0 00.19-1l.75.39a4.75 4.75 0 01-.58 1.83A3.17 3.17 0 0194.51 9a2.93 2.93 0 01-1.51.43zm2.9-.19l-.43-2.74V2.38h2.45v4.5l.44 2.36zM99.4 0h2.46v9.24H99.4zM102.59 4.19V3.13l1.4-.56 1.06-2h1.39v1.81h2.89v1.81h-2.89v2a1.88 1.88 0 00.13.79.77.77 0 00.43.42 2.34 2.34 0 00.84.12 4 4 0 001.61-.31v1.87a5.92 5.92 0 01-1 .25 6.64 6.64 0 01-1.18.11 3.52 3.52 0 01-2.48-.76 2.76 2.76 0 01-.79-2.13V4.19z" fill="#e50b7b"/></svg>