<svg version="1.1" xmlns="http://www.w3.org/2000/svg" xmlns:xlink="http://www.w3.org/1999/xlink" viewBox="-8.32 -8.32 48.64 48.64" xml:space="preserve" fill="#000000"><g id="SVGRepo_bgCarrier" stroke-width="0"><rect x="-8.32" y="-8.32" width="48.64" height="48.64" rx="24.32" fill="#D33079" strokewidth="0"></rect></g><g id="SVGRepo_tracerCarrier" stroke-linecap="round" stroke-linejoin="round"></g><g id="SVGRepo_iconCarrier"> <style type="text/css"> .puchipuchi_een{fill:#fff<svg fill="#ffffff" viewBox="-215.04 -215.04 1454.08 1454.08" xmlns="http://www.w3.org/2000/svg" class="icon" stroke="#ffffff"><g id="SVGRepo_bgCarrier" stroke-width="0" transform="translate(0,0), scale(1)"><rect x="-215.04" y="-215.04" width="1454.08" height="1454.08" rx="727.04" fill="#fffD33079" strokewidth="0"></rect></g><g id="SVGRepo_tracerCarrier" stroke-linecap="round" stroke-linejoin="round" stroke="#fffCCCCCC" stroke-width="2.048"></g><g id="SVGRepo_iconCarrier"> <path d="M928 161H699.2c-49.1 0-97.1 14.1-138.4 40.7L512 233l-48.8-31.3A255.2 255.2 0 0 0 324.8 161H96c-17.7 0-32 14.3-32 32v568c0 17.7 14.3 32 32 32h228.8c49.1 0 97.1 14.1 138.4 40.7l44.4 28.6c1.3.8 2.8 1.3 4.3 1.3s3-.4 4.3-1.3l44.4-28.6C602 807.1 650.1 793 699.2 793H928c17.7 0 32-14.3 32-32V193c0-17.7-14.3-32-32-32zM324.8 721H136V233h188.8c35.4 0 69.8 10.1 99.5 29.2l48.8 31.3 6.9 4.5v462c-47.6-25.6-100.8-39-155.2-39zm563.2 0H699.2c-54.4 0-107.6 13.4-155.2 39V298l6.9-4.5 48.8-31.3c29.7-19.1 64.1-29.2 99.5-29.2H888v488zM396.9 361H211.1c-3.9 0-7.1 3.4-7.1 7.5v45c0 4.1 3.2 7.5 7.1 7.5h185.7c3.9 0 7.1-3.4 7.1-7.5v-45c.1-4.1-3.1-7.5-7-7.5zm223.1 7.5v45c0 4.1 3.2 7.5 7.1 7.5h185.7c3.9 0 7.1-3.4 7.1-7.5v-45c0-4.1-3.2-7.5-7.1-7.5H627.1c-3.9 0-7.1 3.4-7.1 7.5zM396.9 501H211.1c-3.9 0-7.1 3.4-7.1 7.5v45c0 4.1 3.2 7.5 7.1 7.5h185.7c3.9 0 7.1-3.4 7.1-7.5v-45c.1-4.1-3.1-7.5-7-7.5zm416 0H627.1c-3.9 0-7.1 3.4-7.1 7.5v45c0 4.1 3.2 7.5 7.1 7.5h185.7c3.9 0 7.1-3.4 7.1-7.5v-45c.1-4.1-3.1-7.5-7-7.5z"></path> </g></svg>;} </style> <path class="puchipuchi_een" d="M16,27c0,0,3-1,6-1s7,1,7,1V8c0,0,0-1-0.983-1.224C26.647,6.463,24.081,6,22,6c-3,0-6,1-6,1 s-3-1-6-1C7.919,6,5.353,6.463,3.983,6.776C3,7,3,8,3,8v19c0,0,4-1,7-1S16,27,16,27z M20,13h5c0.552,0,1,0.447,1,1s-0.448,1-1,1h-5 c-0.552,0-1-0.447-1-1S19.448,13,20,13z M20,17h5c0.552,0,1,0.447,1,1s-0.448,1-1,1h-5c-0.552,0-1-0.447-1-1S19.448,17,20,17z M7,13 h5c0.552,0,1,0.447,1,1s-0.448,1-1,1H7c-0.552,0-1-0.447-1-1S6.448,13,7,13z M6,18c0-0.553,0.448-1,1-1h5c0.552,0,1,0.447,1,1 s-0.448,1-1,1H7C6.448,19,6,18.553,6,18z M31,8.999v20c0,0.279-0.117,0.547-0.323,0.736c-0.186,0.17-0.427,0.264-0.677,0.264 c-0.028,0-11.004-0.913-11.004-0.913c-0.043,0.512-0.473,0.913-0.996,0.913h-4c-0.523,0-0.953-0.401-0.996-0.913L2.083,29.996 c-0.281,0.029-0.554-0.071-0.76-0.26C1.117,29.546,1,29.279,1,28.999v-20c0-0.553,0.448-1,1-1v0v19.648 c0,0.321,0.295,0.56,0.608,0.488C4.056,27.801,7.755,27,10,27c2.794,0,5.656,0.939,5.684,0.949l0.315,0.105l0.316-0.105 C16.344,27.939,19.206,27,22,27c2.245,0,5.944,0.801,7.392,1.136C29.705,28.208,30,27.969,30,27.648L30,8v0 C30.552,7.999,31,8.447,31,8.999z"></path> </g></svg>